<?xml version="1.0" standalone="no"?>
<!DOCTYPE svg PUBLIC "-//W3C//DTD SVG 20010904//EN"
 "http://www.w3.org/TR/2001/REC-SVG-20010904/DTD/svg10.dtd">
<svg version="1.0" xmlns="http://www.w3.org/2000/svg"
 width="1122.000000pt" height="682.000000pt" viewBox="0 0 1122.000000 682.000000"
 preserveAspectRatio="xMidYMid meet">

<g transform="translate(0.000000,682.000000) scale(0.100000,-0.100000)"
fill="#000000" stroke="none">
<path d="M7000 6806 c0 -14 36 -46 52 -46 15 0 8 19 -14 40 -26 24 -38 26 -38
6z"/>
<path d="M6806 6759 c-29 -34 -34 -64 -11 -73 10 -3 15 -19 15 -45 0 -30 7
-49 30 -74 29 -34 30 -35 15 -71 -19 -44 -53 -55 -100 -33 -23 11 -37 27 -45
51 -9 28 -17 36 -36 36 -14 0 -27 7 -31 18 -9 22 -24 33 -43 27 -28 -9 -45 13
-45 57 0 39 -2 43 -24 43 -28 0 -49 -45 -50 -107 -1 -37 48 -148 82 -187 41
-46 27 -91 -28 -91 -71 0 -93 -10 -121 -58 l-26 -45 -83 7 c-107 8 -169 38
-173 84 -4 39 -15 40 -52 5 -59 -59 -78 -60 -94 -5 -4 12 -10 22 -14 22 -4 0
-20 11 -36 25 -16 14 -35 25 -43 25 -18 0 -17 -42 3 -88 15 -35 21 -99 10
-110 -7 -6 -55 25 -89 60 -28 27 -56 36 -71 21 -4 -4 -27 -6 -51 -4 -55 3 -85
-6 -85 -25 0 -11 -10 -14 -37 -12 -34 3 -41 9 -74 63 -20 33 -35 63 -33 66 2
3 -2 18 -9 33 -9 19 -20 26 -41 26 -15 0 -50 12 -77 27 -27 14 -52 24 -55 21
-3 -3 -10 -36 -15 -73 -9 -57 -8 -69 5 -84 9 -10 16 -27 16 -39 0 -12 9 -30
20 -39 27 -23 25 -43 -7 -92 -30 -46 -44 -49 -103 -24 -29 13 -40 24 -40 40 0
29 -26 53 -56 53 -28 0 -44 -28 -23 -40 24 -16 -1 -24 -34 -12 -42 15 -44 15
-51 -4 -6 -17 36 -66 65 -76 8 -3 11 -9 7 -13 -6 -7 -65 16 -130 51 -37 20
-47 18 -58 -11 -13 -34 -48 -32 -95 5 -21 17 -41 30 -46 30 -4 0 -14 6 -21 14
-8 8 -49 16 -98 20 -100 8 -118 0 -126 -59 -10 -71 -13 -80 -42 -113 -38 -42
-142 -85 -176 -73 -13 6 -26 15 -28 22 -2 7 -12 9 -26 5 -37 -12 -28 -49 21
-82 52 -36 57 -42 57 -76 0 -21 -6 -29 -25 -34 -26 -7 -68 16 -129 70 -15 14
-44 30 -63 37 -19 6 -47 17 -61 25 -63 32 -91 6 -79 -72 6 -36 71 -124 92
-124 14 0 55 -63 55 -84 0 -8 -8 -24 -18 -36 -16 -20 -19 -21 -31 -6 -20 24
-87 20 -168 -9 -56 -20 -76 -23 -97 -15 -15 5 -38 7 -52 4 -15 -4 -43 2 -74
15 -62 27 -94 27 -138 -1 -23 -14 -48 -21 -69 -19 -27 2 -33 -1 -33 -17 0 -11
10 -32 22 -47 31 -39 15 -59 -51 -63 -46 -3 -51 -1 -51 17 0 28 -35 28 -58 0
-37 -46 -57 -59 -109 -70 -50 -12 -55 -11 -74 9 -30 33 -59 29 -59 -8 0 -16
-4 -30 -9 -30 -5 0 -12 -8 -16 -19 -7 -22 9 -101 22 -110 15 -10 44 -91 33
-91 -18 0 -10 -44 15 -85 34 -54 32 -65 -10 -65 -26 0 -39 -6 -51 -25 -14 -21
-23 -25 -57 -23 l-41 3 -10 -49 c-8 -45 -7 -51 13 -67 11 -9 21 -25 21 -34 0
-13 -6 -15 -30 -10 -46 10 -39 -16 23 -86 48 -56 54 -60 85 -54 19 4 32 2 32
-5 0 -5 6 -10 14 -10 7 0 26 -10 41 -21 33 -27 45 -15 45 48 0 23 5 45 11 49
6 3 26 -9 45 -27 36 -35 53 -35 34 1 -14 27 -11 30 18 19 12 -5 22 -17 22 -28
0 -11 5 -23 10 -26 15 -9 12 -45 -3 -45 -7 0 -17 4 -22 9 -6 5 -25 12 -42 16
-28 6 -33 4 -33 -13 0 -22 -30 -52 -51 -52 -9 0 -24 7 -35 15 -10 8 -31 15
-46 15 -29 0 -35 -14 -19 -39 11 -17 -10 -41 -35 -41 -10 0 -26 8 -36 17 -15
13 -25 15 -46 7 -22 -8 -27 -16 -28 -44 0 -19 -4 -43 -8 -53 -12 -25 0 -47 24
-47 16 0 20 -4 15 -19 -4 -13 3 -28 20 -45 14 -15 33 -42 41 -61 7 -19 22 -42
32 -52 23 -21 44 -81 35 -96 -3 -5 -12 2 -20 17 -10 19 -20 25 -32 21 -11 -3
-25 3 -36 15 -25 28 -55 26 -55 -3 0 -35 28 -67 58 -68 15 0 21 -3 15 -6 -7
-2 -13 -11 -13 -19 0 -8 -10 -14 -25 -14 -27 0 -34 -17 -10 -26 8 -4 15 -17
15 -30 0 -25 1 -25 75 -29 17 -1 51 -5 76 -9 41 -7 49 -5 74 18 32 29 45 31
126 14 49 -10 60 -9 82 5 25 16 27 16 46 -10 12 -14 21 -34 21 -44 0 -20 -23
-25 -85 -20 -50 3 -75 -7 -75 -32 0 -21 -5 -23 -70 -25 -40 -1 -70 2 -70 8 0
18 -49 23 -66 6 -14 -15 -14 -19 6 -53 17 -28 18 -38 8 -44 -7 -5 -17 -4 -22
1 -33 33 -73 -25 -62 -88 3 -20 17 -91 30 -157 l24 -119 -24 -29 c-13 -16 -24
-33 -24 -38 0 -23 37 -45 75 -44 36 0 40 3 43 27 2 15 -2 37 -8 49 -10 17 -9
20 2 17 8 -3 14 -26 16 -66 2 -48 6 -62 19 -62 17 0 93 -74 93 -90 0 -6 9 -10
20 -10 14 0 20 7 20 23 1 21 1 21 12 3 6 -12 10 -70 9 -150 -1 -111 1 -136 17
-166 62 -115 102 -204 102 -223 0 -27 19 -57 35 -57 8 0 15 6 15 13 0 6 5 4
11 -5 15 -27 32 -22 27 7 -6 30 7 33 24 5 14 -22 48 -27 48 -7 0 7 -5 18 -12
25 -6 6 -9 15 -5 18 3 4 13 -1 22 -10 9 -9 20 -16 24 -16 5 0 16 -20 25 -44
11 -29 24 -46 39 -50 37 -10 47 -7 47 14 0 11 5 20 10 20 6 0 10 -4 10 -10 0
-5 17 -8 37 -7 29 2 39 -3 48 -19 31 -61 60 -72 52 -19 -8 47 0 44 22 -8 10
-24 26 -51 36 -60 9 -10 20 -38 23 -64 4 -26 14 -49 22 -53 8 -3 35 -16 59
-28 44 -22 71 -17 71 12 0 6 15 26 34 44 31 30 38 32 104 32 104 0 125 29 136
184 11 152 24 167 152 174 91 5 133 -5 203 -49 25 -16 55 -33 66 -38 60 -27
79 -94 45 -162 -28 -55 -88 -119 -112 -119 -10 0 -21 -8 -25 -18 -3 -9 -15
-24 -26 -33 -18 -15 -19 -20 -9 -45 9 -23 9 -41 -3 -84 -21 -77 -19 -113 10
-170 29 -58 31 -82 8 -121 -15 -24 -15 -34 -6 -60 10 -25 9 -38 -2 -66 -8 -20
-15 -46 -15 -60 0 -13 -20 -65 -44 -116 -69 -146 -74 -159 -96 -248 -11 -46
-27 -107 -35 -135 -8 -28 -15 -55 -15 -60 0 -13 129 -15 153 -2 17 9 19 17 14
67 -7 66 10 94 62 106 18 4 42 18 54 31 11 13 28 24 37 24 10 0 29 9 43 20 32
25 31 25 73 -7 l35 -26 25 26 c24 26 64 37 64 17 0 -14 19 -12 67 8 32 13 43
23 43 39 0 14 11 27 32 37 41 21 64 20 104 -5 29 -18 39 -19 67 -10 19 7 49
25 67 41 23 21 54 34 107 46 81 18 120 45 229 161 l51 54 78 -3 c55 -1 80 2
83 10 7 22 22 1 22 -30 0 -17 7 -40 17 -50 9 -11 11 -18 5 -18 -20 0 -13 -56
8 -75 12 -11 18 -25 15 -36 -7 -22 41 -79 67 -79 45 0 44 119 -2 177 -11 14
-20 34 -20 44 0 18 36 59 52 59 5 0 23 -21 41 -46 59 -85 69 -93 139 -110 38
-9 77 -26 92 -41 29 -27 33 -43 11 -43 -21 0 -19 -33 3 -53 21 -20 45 -21 73
-6 17 9 25 6 44 -15 17 -18 34 -26 58 -26 36 0 64 -21 52 -40 -9 -14 2 -60 14
-60 5 0 42 -20 82 -45 82 -50 101 -54 122 -25 11 16 21 20 43 14 29 -6 104
-78 104 -99 0 -6 17 -28 38 -48 29 -29 46 -37 74 -37 24 0 38 -5 42 -16 5 -12
14 -15 41 -10 20 4 42 2 53 -5 15 -9 28 -9 63 3 41 14 47 13 86 -6 53 -26 57
-38 33 -81 -11 -20 -20 -51 -20 -70 0 -18 -4 -37 -10 -40 -15 -9 -12 -61 5
-75 8 -6 34 -14 59 -16 71 -7 113 -29 121 -63 5 -24 18 -36 61 -57 30 -14 54
-29 54 -33 0 -4 -9 -17 -21 -30 -24 -25 -19 -71 7 -71 8 0 24 -15 35 -34 11
-19 26 -37 34 -40 10 -3 15 -20 15 -47 0 -45 25 -108 47 -116 7 -3 13 -11 13
-18 0 -11 20 -23 95 -55 11 -5 56 -11 100 -15 139 -10 142 -11 149 -56 3 -21
16 -59 28 -84 19 -39 26 -45 52 -45 21 0 44 12 70 35 21 19 42 35 47 35 4 0
11 -16 15 -35 8 -45 22 -41 43 12 18 47 48 83 68 83 7 0 16 7 19 15 4 10 20
15 45 15 33 0 41 4 49 26 9 24 14 26 43 18 43 -10 125 -7 160 7 20 9 27 18 27
40 0 36 50 95 87 102 40 8 74 -21 67 -56 -7 -34 16 -46 49 -24 35 23 116 1
123 -33 10 -46 13 -50 36 -50 12 0 32 -10 44 -21 15 -14 40 -23 70 -25 25 -3
55 -9 67 -15 11 -6 49 -13 84 -14 52 -3 76 -11 137 -44 106 -59 115 -55 71 34
-13 28 -25 60 -25 72 0 22 42 63 65 63 7 0 24 10 39 21 19 15 26 29 24 48 -1
14 1 31 5 38 8 13 -1 43 -13 43 -4 0 -11 12 -14 26 -7 26 12 94 26 94 4 0 8 4
8 9 0 4 16 26 37 47 24 26 43 38 58 36 13 -2 25 3 28 12 8 20 37 21 37 1 0 -8
6 -15 14 -15 29 0 46 13 46 34 0 12 5 27 11 33 8 8 8 17 0 31 -6 11 -11 30
-11 41 0 12 -4 21 -10 21 -5 0 -10 6 -10 14 0 8 -7 22 -16 31 -20 20 -12 42
18 47 16 2 26 13 34 38 20 64 38 99 54 107 8 4 63 7 122 7 58 1 109 4 113 8 4
4 18 0 31 -9 25 -16 87 -13 124 7 22 12 48 116 34 138 -6 9 -46 27 -90 41 -69
23 -79 29 -76 48 3 17 -2 22 -25 25 -22 2 -33 13 -50 48 -27 55 -27 52 -3 80
11 13 20 33 20 46 0 13 5 35 12 50 11 24 10 29 -15 50 -32 28 -59 30 -81 9 -8
-8 -18 -15 -23 -15 -14 1 -63 79 -53 85 6 3 10 34 10 68 0 77 -23 124 -73 152
-29 16 -38 28 -43 55 -7 45 -39 140 -72 210 -15 34 -27 84 -32 131 -6 70 -11
83 -54 144 -44 63 -46 69 -35 99 9 25 9 41 0 66 -18 52 -14 88 10 95 33 11 18
37 -46 77 -153 95 -182 106 -192 69 -7 -28 -28 -33 -48 -11 -22 25 -38 170
-26 237 12 63 5 126 -19 174 -12 23 -27 89 -37 161 -9 68 -20 125 -23 128 -22
17 -44 85 -50 151 -6 71 -9 81 -47 125 -22 27 -53 71 -68 99 -29 50 -61 84
-82 85 -6 0 -18 6 -25 14 -8 7 -27 21 -43 29 -58 31 -86 62 -104 115 -18 53
-18 54 6 125 23 69 64 138 107 183 47 48 203 145 279 174 182 70 458 106 761
102 56 -1 77 -6 107 -27 70 -46 88 -32 109 84 6 35 24 87 40 115 15 28 36 85
45 126 20 91 33 114 119 204 55 58 76 108 76 188 0 57 4 71 26 97 14 17 42 35
64 41 22 6 45 16 52 23 65 61 78 67 148 65 62 -1 71 1 89 23 11 13 20 32 21
42 0 21 -27 51 -55 61 -19 7 -19 8 -1 18 13 7 20 7 26 -2 10 -16 113 4 135 26
20 21 19 87 -3 132 -25 50 -117 148 -168 178 -23 13 -49 33 -59 44 -24 26 -49
25 -68 -2 -23 -35 -109 -122 -137 -140 -33 -20 -172 -48 -242 -48 -41 0 -62 6
-86 24 -24 17 -46 24 -81 24 -70 0 -259 21 -306 34 -22 7 -56 19 -75 29 -83
40 -358 49 -560 18 -41 -6 -147 -12 -236 -13 l-161 -1 -56 35 c-31 19 -71 47
-89 62 -84 69 -113 89 -149 98 -30 8 -38 16 -41 37 -2 14 -12 31 -23 37 -10 6
-25 17 -33 24 -25 22 -54 34 -134 53 -104 25 -143 25 -133 2 18 -45 17 -52
-16 -72 -46 -28 -88 -19 -161 35 -42 30 -73 45 -106 49 -96 14 -202 53 -202
76 0 22 -55 34 -180 39 -133 5 -134 5 -140 30 -4 19 -17 28 -49 39 -30 10 -40
16 -32 24 6 6 11 15 11 19 0 14 -71 9 -86 -7 -19 -19 -41 -9 -60 26 -8 16 -22
29 -31 29 -14 0 -15 -9 -10 -67 8 -85 1 -113 -27 -113 -11 0 -28 4 -36 10 -12
8 -12 11 3 28 9 10 17 31 17 45 0 26 -2 27 -50 27 -39 0 -50 4 -50 16 0 9 -6
14 -12 12 -9 -3 -15 -34 -18 -88 l-5 -84 -38 -9 c-26 -6 -47 -6 -64 2 -25 12
-26 14 -20 84 4 53 1 77 -9 92 -8 10 -14 26 -14 35 0 9 -11 29 -24 45 -17 20
-29 25 -44 21 -17 -6 -24 0 -37 29 -21 43 -36 44 -69 4z m701 -3971 c38 -17
113 -95 113 -117 0 -10 7 -24 15 -31 13 -11 12 -17 -10 -46 -24 -32 -26 -42
-31 -181 -4 -105 -9 -152 -19 -163 -7 -8 -17 -28 -21 -45 -4 -16 -18 -51 -32
-78 -21 -41 -23 -55 -17 -104 4 -31 11 -66 15 -78 5 -12 3 -30 -4 -43 -11 -20
-13 -17 -39 41 -16 34 -32 69 -37 78 -4 9 -4 22 1 30 19 30 10 67 -19 80 -19
8 -34 29 -51 68 -29 67 -101 213 -127 259 -19 31 -19 33 0 65 11 17 24 42 30
54 6 12 21 28 33 34 19 10 21 17 16 59 -5 40 -2 54 17 80 12 17 32 35 44 40
31 13 91 12 123 -2z"/>
<path d="M5587 6693 c-13 -13 -7 -38 13 -51 17 -10 18 -16 8 -37 -6 -14 -9
-27 -7 -29 2 -2 30 -6 62 -9 51 -5 57 -4 57 13 0 36 -21 66 -66 93 -47 28 -56
31 -67 20z"/>
<path d="M4758 6533 c-31 -47 -51 -107 -44 -130 7 -22 94 -63 134 -63 31 0 49
23 34 44 -5 6 -14 31 -21 56 -14 49 -58 130 -71 130 -4 0 -18 -17 -32 -37z"/>
<path d="M5774 6555 c-7 -18 12 -45 32 -45 17 0 18 32 2 48 -16 16 -27 15 -34
-3z"/>
<path d="M5170 6495 c0 -30 39 -59 66 -48 38 14 61 73 29 73 -8 0 -15 -5 -15
-12 0 -9 -3 -9 -12 0 -7 7 -25 12 -40 12 -23 0 -28 -4 -28 -25z"/>
<path d="M5980 6464 c0 -12 54 -44 75 -44 10 0 -6 44 -19 52 -20 14 -56 9 -56
-8z"/>
<path d="M6270 6275 c0 -18 5 -25 20 -25 21 0 24 8 14 34 -10 25 -34 19 -34
-9z"/>
<path d="M3800 5788 c-20 -19 -37 -23 -85 -23 -58 0 -60 -1 -63 -28 -3 -22 7
-37 53 -82 32 -30 63 -55 70 -55 23 0 45 30 45 63 l1 32 17 -28 c22 -35 60
-33 81 4 19 33 9 67 -30 107 -37 38 -55 40 -89 10z"/>
<path d="M2770 5615 c0 -4 7 -19 15 -35 11 -22 23 -30 42 -30 15 0 35 -7 45
-17 10 -9 21 -13 25 -10 12 13 -16 57 -49 77 -31 18 -78 27 -78 15z"/>
<path d="M1426 4928 c-3 -13 -6 -54 -6 -92 0 -67 0 -68 -25 -62 -18 5 -30 0
-49 -20 -21 -24 -29 -26 -65 -20 -38 6 -41 4 -47 -20 -4 -14 -2 -41 3 -59 l11
-33 -34 5 c-32 5 -34 4 -34 -25 0 -23 6 -33 23 -38 l22 -8 -25 -6 c-14 -4 -29
-3 -34 2 -21 18 -36 7 -36 -25 0 -36 -25 -67 -54 -67 -9 0 -31 7 -49 17 -44
22 -154 29 -176 10 -25 -23 -228 -32 -265 -12 -53 28 -78 17 -91 -42 -6 -31
-5 -32 37 -43 69 -17 108 -40 108 -65 0 -18 11 -26 62 -43 33 -12 65 -19 71
-15 5 3 30 5 55 5 25 -1 51 3 58 9 9 7 19 7 33 0 32 -17 57 -13 91 16 l32 26
34 -18 c19 -10 44 -34 56 -53 13 -20 31 -47 40 -61 9 -14 20 -47 23 -73 6 -40
5 -48 -9 -48 -18 0 -22 -25 -6 -35 6 -3 10 -19 10 -35 0 -19 9 -35 28 -48 22
-17 25 -23 15 -33 -19 -19 -16 -30 17 -68 33 -37 32 -50 -2 -44 -13 2 -29 -1
-37 -6 -20 -13 -3 -32 68 -75 59 -36 152 -56 174 -38 7 5 28 13 47 17 52 10
76 29 115 90 19 31 35 58 35 61 0 3 9 26 21 51 16 35 18 48 8 53 -9 6 -7 15 9
35 l21 26 35 -35 c19 -20 39 -36 45 -36 7 0 7 -8 -1 -25 -19 -43 2 -42 43 3
22 23 46 42 54 42 8 0 15 4 15 9 0 5 12 12 26 15 22 6 25 11 22 37 -3 17 1 34
9 40 7 6 13 17 13 23 0 8 11 11 30 8 27 -4 30 -2 31 24 0 27 1 28 9 7 6 -15
18 -23 34 -23 33 0 40 14 21 43 l-16 24 52 -4 c60 -4 79 -16 79 -49 0 -24 14
-32 25 -14 3 6 13 10 22 10 12 0 14 -7 9 -35 -8 -38 7 -48 24 -16 12 24 13 61
1 61 -4 0 -11 18 -14 41 -3 22 -12 48 -19 57 -8 9 -22 37 -31 61 -14 38 -14
45 -2 58 22 21 18 57 -8 81 -32 30 -45 28 -49 -10 l-3 -32 -52 51 c-54 53 -61
67 -43 78 15 9 12 41 -4 54 -8 7 -12 21 -9 31 5 21 -11 28 -22 10 -3 -5 -20
-10 -36 -10 -24 0 -33 6 -43 31 -15 36 -59 61 -91 53 -13 -3 -26 -1 -29 5 -4
6 -20 8 -36 5 -40 -9 -125 14 -147 38 -14 16 -17 34 -15 88 l2 68 -35 21 c-24
14 -53 21 -86 21 -27 0 -49 5 -49 10 0 20 -38 10 -44 -12z"/>
<path d="M2455 4813 c-11 -3 -22 -8 -25 -12 -3 -4 -20 -17 -38 -30 -31 -22
-33 -26 -27 -63 4 -22 19 -53 36 -70 19 -22 27 -39 23 -53 -3 -13 2 -27 15
-39 17 -16 28 -17 63 -10 37 8 43 13 46 37 2 15 6 27 9 27 6 0 64 -40 81 -57
16 -16 61 -28 69 -19 4 3 1 12 -5 18 -17 17 -15 28 6 28 10 0 23 5 30 12 9 9
18 9 37 0 42 -19 52 -15 58 25 5 29 2 42 -13 58 -11 12 -20 29 -20 38 0 9 -5
17 -10 17 -6 0 -16 11 -22 25 -11 26 -48 35 -48 13 0 -9 -3 -8 -10 2 -8 12
-12 12 -37 0 -15 -8 -31 -19 -35 -25 -4 -5 -11 2 -17 17 -8 20 -18 27 -54 32
-25 4 -51 14 -57 21 -13 15 -20 16 -55 8z"/>
<path d="M2820 4500 c-11 -21 -5 -60 10 -60 11 0 20 26 20 56 0 29 -15 31 -30
4z"/>
<path d="M2830 4170 c-20 -13 -1 -44 29 -48 19 -3 22 0 19 25 -3 30 -23 39
-48 23z"/>
<path d="M2340 4154 c0 -20 24 -44 45 -44 33 0 33 28 -1 40 -29 11 -44 13 -44
4z"/>
<path d="M2130 4075 c0 -24 30 -65 47 -65 10 0 13 6 9 16 -3 9 -6 19 -6 24 0
11 -29 40 -41 40 -5 0 -9 -7 -9 -15z"/>
<path d="M2225 3969 c-8 -25 -1 -34 20 -26 19 8 20 47 1 47 -8 0 -18 -9 -21
-21z"/>
<path d="M2440 3900 c-13 -9 -13 -11 0 -20 20 -14 45 -8 45 10 0 18 -25 24
-45 10z"/>
<path d="M2401 3644 c-25 -32 -27 -74 -5 -115 8 -17 14 -32 12 -34 -2 -2 -22
2 -45 8 -39 10 -44 9 -64 -11 -44 -48 3 -172 66 -172 13 0 27 5 30 10 10 16
22 12 49 -15 16 -16 22 -31 19 -45 -4 -16 1 -21 25 -26 23 -5 32 -13 37 -34 7
-32 31 -46 51 -29 11 9 14 8 14 -5 0 -29 54 -17 60 14 5 26 32 33 59 16 8 -5
16 -4 22 5 6 10 9 11 9 2 0 -7 11 -13 25 -13 27 0 32 -9 14 -27 -6 -6 -9 -21
-7 -34 2 -18 10 -25 32 -27 46 -6 61 33 26 68 -20 20 -20 20 0 20 36 0 53 66
27 105 -7 11 -24 48 -37 83 -14 34 -28 62 -32 62 -12 0 -9 38 4 59 15 25 4 49
-29 63 -15 6 -61 27 -102 45 -134 61 -226 70 -260 27z"/>
<path d="M1336 3493 c-25 -38 -52 -75 -58 -83 -24 -28 -67 -50 -99 -50 -18 0
-48 -5 -66 -12 -27 -10 -36 -10 -42 0 -5 9 -20 7 -59 -8 -32 -12 -62 -17 -81
-14 -26 5 -31 3 -36 -18 -11 -45 -2 -103 17 -103 28 0 32 -13 18 -71 -11 -44
-19 -58 -39 -66 -35 -13 -51 11 -51 75 0 55 -23 103 -53 111 -30 8 -37 -1 -37
-49 0 -36 -4 -44 -22 -48 -13 -4 -42 -20 -65 -37 -53 -39 -76 -101 -71 -197 2
-54 0 -68 -12 -70 -19 -4 -56 67 -76 146 -8 29 -27 70 -43 90 -25 31 -39 38
-109 55 -43 10 -84 16 -91 12 -14 -9 -15 -53 -1 -61 6 -3 10 -13 10 -21 0 -20
-40 -17 -75 6 -16 11 -36 20 -42 20 -15 0 -18 -56 -3 -65 5 -3 10 -15 10 -25
0 -16 7 -18 42 -17 41 2 43 1 65 -45 12 -25 27 -49 32 -53 6 -3 11 -15 11 -25
0 -39 32 -89 59 -92 23 -3 26 -7 23 -38 -2 -19 -4 -54 -4 -77 0 -41 -18 -58
-33 -33 -3 6 -18 10 -32 10 -24 0 -25 -1 -18 -50 5 -33 3 -50 -4 -50 -6 0 -13
11 -17 24 -4 16 -19 29 -46 40 -45 17 -58 14 -58 -13 0 -16 8 -29 50 -78 20
-24 10 -32 -25 -17 -19 7 -44 14 -55 14 -26 0 -37 -27 -22 -51 7 -10 12 -28
12 -39 0 -11 4 -20 9 -20 5 0 11 -9 14 -20 3 -12 14 -20 25 -20 15 0 19 -5 15
-20 -4 -13 1 -22 13 -26 11 -3 26 -9 34 -13 9 -5 31 -12 50 -15 19 -4 48 -12
63 -18 20 -8 31 -8 39 0 19 19 72 -64 83 -128 8 -52 19 -64 59 -63 19 1 40 -5
47 -13 6 -8 20 -14 31 -14 11 0 22 -9 25 -20 6 -23 31 -31 83 -27 30 2 35 -1
38 -21 2 -13 -7 -37 -21 -55 -42 -56 -59 -98 -54 -133 7 -43 1 -47 -42 -23
-34 20 -38 20 -73 5 -32 -14 -39 -23 -53 -68 -8 -28 -15 -57 -15 -64 0 -6 -7
-17 -16 -25 -8 -7 -13 -21 -11 -31 4 -12 -3 -24 -19 -35 -13 -8 -27 -27 -31
-42 -3 -14 -19 -41 -35 -60 -21 -23 -28 -40 -24 -55 3 -11 6 -27 6 -34 0 -7
11 -18 25 -24 14 -6 25 -19 25 -28 0 -9 11 -22 25 -28 20 -9 25 -19 25 -47 0
-39 12 -44 37 -15 10 11 39 41 64 67 25 27 54 61 65 77 10 16 34 35 53 43 31
13 71 47 71 61 0 3 -5 22 -11 43 -11 35 -9 42 21 95 18 32 36 80 40 108 5 28
18 78 30 111 18 50 20 73 15 140 -6 75 -5 83 21 130 32 58 43 68 104 96 36 16
56 19 98 14 63 -8 116 12 126 47 l6 23 16 -25 c18 -26 43 -50 54 -50 4 0 15
18 25 39 19 42 28 41 54 -7 14 -26 33 -28 55 -7 8 8 21 13 29 10 9 -4 19 7 30
35 9 23 22 40 31 40 18 0 22 -25 6 -35 -16 -10 -12 -52 6 -59 9 -4 22 -2 28 4
8 6 19 5 32 -4 52 -36 124 -25 124 18 0 13 -16 43 -35 67 -48 57 -44 83 12 87
25 2 55 -4 74 -14 80 -41 119 -37 119 13 0 20 26 112 37 132 1 1 7 0 13 -4 8
-5 8 -10 0 -20 -18 -22 -3 -35 39 -35 47 0 61 14 61 63 0 33 7 46 40 80 l41
40 -27 28 c-14 15 -23 32 -20 38 4 5 20 -5 39 -24 25 -26 42 -34 77 -37 45 -3
45 -3 45 30 0 31 1 32 42 32 39 0 43 2 43 24 0 13 -5 26 -12 28 -9 3 -10 17
-3 53 10 49 35 75 35 36 0 -25 35 -29 66 -6 27 18 57 81 48 97 -5 8 -2 9 10 5
10 -4 24 -7 32 -7 8 0 20 -13 25 -30 11 -31 34 -41 122 -53 28 -4 40 -2 44 9
3 7 11 14 18 14 19 0 40 85 25 102 -6 7 -19 27 -29 43 -19 31 -89 75 -121 75
-10 0 -32 12 -49 26 -17 14 -43 29 -58 33 -28 8 -48 36 -57 81 -5 25 -58 60
-91 60 -8 0 -46 27 -85 61 -92 79 -170 113 -307 136 -26 4 -33 2 -33 -11 0
-13 -5 -14 -26 -6 -48 19 -78 12 -100 -23 -12 -17 -27 -47 -34 -64 -7 -18 -15
-33 -17 -33 -12 0 -83 44 -83 52 0 4 -7 8 -15 8 -10 0 -15 -10 -15 -30 0 -28
-3 -30 -34 -30 -27 0 -39 7 -56 30 -12 16 -41 53 -66 82 -24 28 -44 60 -44 70
0 33 -18 19 -64 -49z"/>
<path d="M2177 3553 c-12 -11 -8 -50 7 -62 23 -19 46 -2 46 35 0 29 -3 34 -23
34 -13 0 -27 -3 -30 -7z"/>
<path d="M2886 3544 c-9 -8 -16 -21 -16 -28 0 -12 40 -36 60 -36 14 0 12 54
-2 68 -16 16 -23 15 -42 -4z"/>
<path d="M2890 3241 c0 -20 39 -36 53 -22 14 14 -5 41 -29 41 -17 0 -24 -6
-24 -19z"/>
<path d="M175 2770 c-4 -6 -21 -10 -40 -10 -46 0 -65 -9 -65 -31 0 -34 38 -48
109 -40 49 6 68 13 83 31 30 37 20 55 -34 57 -26 1 -50 -2 -53 -7z"/>
<path d="M9918 2743 c-29 -7 -20 -36 19 -65 41 -31 74 -36 93 -13 11 13 10 19
-6 35 -10 10 -25 26 -32 35 -12 15 -38 18 -74 8z"/>
<path d="M0 2596 c0 -12 47 -36 71 -36 19 0 7 28 -16 38 -35 16 -55 15 -55 -2z"/>
<path d="M4096 2224 c-56 -64 -37 -96 32 -54 27 17 32 25 32 60 0 52 -14 50
-64 -6z"/>
<path d="M1400 2173 c1 -27 26 -55 47 -51 22 4 30 47 11 59 -24 16 -58 10 -58
-8z"/>
<path d="M1266 2091 c-4 -6 -4 -26 -1 -45 6 -29 3 -38 -19 -57 -28 -24 -35
-44 -12 -36 8 3 22 -3 32 -14 24 -26 37 -24 62 11 26 34 28 56 7 76 -8 9 -15
26 -15 40 0 13 -4 24 -9 24 -5 0 -16 3 -24 6 -8 3 -18 1 -21 -5z"/>
<path d="M3865 2023 c-33 -5 -45 -18 -45 -50 0 -12 -8 -35 -17 -52 -15 -25
-16 -34 -5 -48 6 -10 16 -28 22 -40 17 -40 90 -23 90 21 0 13 7 43 15 66 8 23
15 51 15 62 0 20 -23 49 -37 47 -4 -1 -21 -4 -38 -6z"/>
<path d="M2520 961 c0 -11 -4 -23 -10 -26 -24 -15 1 -94 29 -93 9 0 34 -4 55
-8 l39 -7 -6 43 c-9 69 -107 152 -107 91z"/>
</g>
</svg>
