<svg xmlns="http://www.w3.org/2000/svg" width="635" height="788" viewBox="0 0 635 788" version="1.1"><path d="M 27 445.500 C 27 445.775, 27.225 446, 27.500 446 C 27.775 446, 28 445.775, 28 445.500 C 28 445.225, 27.775 445, 27.500 445 C 27.225 445, 27 445.225, 27 445.500 M 31 454.500 C 31 454.775, 31.225 455, 31.500 455 C 31.775 455, 32 454.775, 32 454.500 C 32 454.225, 31.775 454, 31.500 454 C 31.225 454, 31 454.225, 31 454.500 M 603 454.500 C 603 454.775, 603.225 455, 603.500 455 C 603.775 455, 604 454.775, 604 454.500 C 604 454.225, 603.775 454, 603.500 454 C 603.225 454, 603 454.225, 603 454.500 M 32 456.500 C 32 456.775, 32.225 457, 32.500 457 C 32.775 457, 33 456.775, 33 456.500 C 33 456.225, 32.775 456, 32.500 456 C 32.225 456, 32 456.225, 32 456.500 M 602 456.500 C 602 456.775, 602.225 457, 602.500 457 C 602.775 457, 603 456.775, 603 456.500 C 603 456.225, 602.775 456, 602.500 456 C 602.225 456, 602 456.225, 602 456.500 M 33 458.500 C 33 458.775, 33.225 459, 33.500 459 C 33.775 459, 34 458.775, 34 458.500 C 34 458.225, 33.775 458, 33.500 458 C 33.225 458, 33 458.225, 33 458.500 M 601 458.500 C 601 458.775, 601.225 459, 601.500 459 C 601.775 459, 602 458.775, 602 458.500 C 602 458.225, 601.775 458, 601.500 458 C 601.225 458, 601 458.225, 601 458.500 M 34 460.500 C 34 460.775, 34.225 461, 34.500 461 C 34.775 461, 35 460.775, 35 460.500 C 35 460.225, 34.775 460, 34.500 460 C 34.225 460, 34 460.225, 34 460.500 M 600 460.500 C 600 460.775, 600.225 461, 600.500 461 C 600.775 461, 601 460.775, 601 460.500 C 601 460.225, 600.775 460, 600.500 460 C 600.225 460, 600 460.225, 600 460.500 M 35 462.500 C 35 462.775, 35.225 463, 35.500 463 C 35.775 463, 36 462.775, 36 462.500 C 36 462.225, 35.775 462, 35.500 462 C 35.225 462, 35 462.225, 35 462.500 M 599 462.500 C 599 462.775, 599.225 463, 599.500 463 C 599.775 463, 600 462.775, 600 462.500 C 600 462.225, 599.775 462, 599.500 462 C 599.225 462, 599 462.225, 599 462.500 M 36 464.500 C 36 464.775, 36.225 465, 36.500 465 C 36.775 465, 37 464.775, 37 464.500 C 37 464.225, 36.775 464, 36.500 464 C 36.225 464, 36 464.225, 36 464.500 M 598 464.500 C 598 464.775, 598.225 465, 598.500 465 C 598.775 465, 599 464.775, 599 464.500 C 599 464.225, 598.775 464, 598.500 464 C 598.225 464, 598 464.225, 598 464.500 M 40 471.500 C 40 471.775, 40.225 472, 40.500 472 C 40.775 472, 41 471.775, 41 471.500 C 41 471.225, 40.775 471, 40.500 471 C 40.225 471, 40 471.225, 40 471.500 M 594 471.500 C 594 471.775, 594.225 472, 594.500 472 C 594.775 472, 595 471.775, 595 471.500 C 595 471.225, 594.775 471, 594.500 471 C 594.225 471, 594 471.225, 594 471.500 M 41 473.500 C 41 473.775, 41.225 474, 41.500 474 C 41.775 474, 42 473.775, 42 473.500 C 42 473.225, 41.775 473, 41.500 473 C 41.225 473, 41 473.225, 41 473.500 M 593 473.500 C 593 473.775, 593.225 474, 593.500 474 C 593.775 474, 594 473.775, 594 473.500 C 594 473.225, 593.775 473, 593.500 473 C 593.225 473, 593 473.225, 593 473.500 M 44 478.500 C 44 478.775, 44.225 479, 44.500 479 C 44.775 479, 45 478.775, 45 478.500 C 45 478.225, 44.775 478, 44.500 478 C 44.225 478, 44 478.225, 44 478.500 M 590 478.500 C 590 478.775, 590.225 479, 590.500 479 C 590.775 479, 591 478.775, 591 478.500 C 591 478.225, 590.775 478, 590.500 478 C 590.225 478, 590 478.225, 590 478.500 M 45 480.500 C 45 480.775, 45.225 481, 45.500 481 C 45.775 481, 46 480.775, 46 480.500 C 46 480.225, 45.775 480, 45.500 480 C 45.225 480, 45 480.225, 45 480.500 M 589 480.500 C 589 480.775, 589.225 481, 589.500 481 C 589.775 481, 590 480.775, 590 480.500 C 590 480.225, 589.775 480, 589.500 480 C 589.225 480, 589 480.225, 589 480.500 M 47 483.500 C 47 483.775, 47.225 484, 47.500 484 C 47.775 484, 48 483.775, 48 483.500 C 48 483.225, 47.775 483, 47.500 483 C 47.225 483, 47 483.225, 47 483.500 M 587 483.500 C 587 483.775, 587.225 484, 587.500 484 C 587.775 484, 588 483.775, 588 483.500 C 588 483.225, 587.775 483, 587.500 483 C 587.225 483, 587 483.225, 587 483.500 M 50 488.500 C 50 488.775, 50.225 489, 50.500 489 C 50.775 489, 51 488.775, 51 488.500 C 51 488.225, 50.775 488, 50.500 488 C 50.225 488, 50 488.225, 50 488.500 M 584 488.500 C 584 488.775, 584.225 489, 584.500 489 C 584.775 489, 585 488.775, 585 488.500 C 585 488.225, 584.775 488, 584.500 488 C 584.225 488, 584 488.225, 584 488.500 M 52 491.500 C 52 491.775, 52.225 492, 52.500 492 C 52.775 492, 53 491.775, 53 491.500 C 53 491.225, 52.775 491, 52.500 491 C 52.225 491, 52 491.225, 52 491.500 M 582 491.500 C 582 491.775, 582.225 492, 582.500 492 C 582.775 492, 583 491.775, 583 491.500 C 583 491.225, 582.775 491, 582.500 491 C 582.225 491, 582 491.225, 582 491.500 M 54 494.500 C 54 494.775, 54.225 495, 54.500 495 C 54.775 495, 55 494.775, 55 494.500 C 55 494.225, 54.775 494, 54.500 494 C 54.225 494, 54 494.225, 54 494.500 M 580 494.500 C 580 494.775, 580.225 495, 580.500 495 C 580.775 495, 581 494.775, 581 494.500 C 581 494.225, 580.775 494, 580.500 494 C 580.225 494, 580 494.225, 580 494.500 M 56 497.500 C 56 497.775, 56.225 498, 56.500 498 C 56.775 498, 57 497.775, 57 497.500 C 57 497.225, 56.775 497, 56.500 497 C 56.225 497, 56 497.225, 56 497.500 M 578 497.500 C 578 497.775, 578.225 498, 578.500 498 C 578.775 498, 579 497.775, 579 497.500 C 579 497.225, 578.775 497, 578.500 497 C 578.225 497, 578 497.225, 578 497.500 M 59 501.500 C 59 501.775, 59.225 502, 59.500 502 C 59.775 502, 60 501.775, 60 501.500 C 60 501.225, 59.775 501, 59.500 501 C 59.225 501, 59 501.225, 59 501.500 M 575 501.500 C 575 501.775, 575.225 502, 575.500 502 C 575.775 502, 576 501.775, 576 501.500 C 576 501.225, 575.775 501, 575.500 501 C 575.225 501, 575 501.225, 575 501.500 M 61 504.500 C 61 504.775, 61.225 505, 61.500 505 C 61.775 505, 62 504.775, 62 504.500 C 62 504.225, 61.775 504, 61.500 504 C 61.225 504, 61 504.225, 61 504.500 M 573 504.500 C 573 504.775, 573.225 505, 573.500 505 C 573.775 505, 574 504.775, 574 504.500 C 574 504.225, 573.775 504, 573.500 504 C 573.225 504, 573 504.225, 573 504.500 M 64 508.500 C 64 508.775, 64.225 509, 64.500 509 C 64.775 509, 65 508.775, 65 508.500 C 65 508.225, 64.775 508, 64.500 508 C 64.225 508, 64 508.225, 64 508.500 M 570 508.500 C 570 508.775, 570.225 509, 570.500 509 C 570.775 509, 571 508.775, 571 508.500 C 571 508.225, 570.775 508, 570.500 508 C 570.225 508, 570 508.225, 570 508.500 M 66 511.500 C 66 511.775, 66.225 512, 66.500 512 C 66.775 512, 67 511.775, 67 511.500 C 67 511.225, 66.775 511, 66.500 511 C 66.225 511, 66 511.225, 66 511.500 M 566.405 513.155 C 565.962 513.870, 566.130 514.038, 566.845 513.595 C 567.480 513.203, 568 512.684, 568 512.441 C 568 512.198, 567.802 512, 567.559 512 C 567.316 512, 566.797 512.520, 566.405 513.155 M 70.500 517 C 70.840 517.550, 71.343 518, 71.618 518 C 71.893 518, 71.840 517.550, 71.500 517 C 71.160 516.450, 70.657 516, 70.382 516 C 70.107 516, 70.160 516.450, 70.500 517 M 562.405 518.155 C 561.962 518.870, 562.130 519.038, 562.845 518.595 C 563.480 518.203, 564 517.684, 564 517.441 C 564 517.198, 563.802 517, 563.559 517 C 563.316 517, 562.797 517.520, 562.405 518.155 M 76.500 524 C 76.840 524.550, 77.343 525, 77.618 525 C 77.893 525, 77.840 524.550, 77.500 524 C 77.160 523.450, 76.657 523, 76.382 523 C 76.107 523, 76.160 523.450, 76.500 524 M 557.405 524.155 C 556.962 524.870, 557.130 525.038, 557.845 524.595 C 558.480 524.203, 559 523.684, 559 523.441 C 559 523.198, 558.802 523, 558.559 523 C 558.316 523, 557.797 523.520, 557.405 524.155 M 549.872 532.750 C 548.629 534.336, 548.664 534.371, 550.250 533.128 C 551.212 532.373, 552 531.585, 552 531.378 C 552 531.170, 551.830 531, 551.622 531 C 551.415 531, 550.627 531.788, 549.872 532.750 M 85.500 534 C 86.495 535.100, 87.535 536, 87.810 536 C 88.085 536, 87.495 535.100, 86.500 534 C 85.505 532.900, 84.465 532, 84.190 532 C 83.915 532, 84.505 532.900, 85.500 534 M 546 538 C 545.411 539.100, 545.155 540, 545.430 540 C 545.705 540, 546.411 539.100, 547 538 C 547.589 536.900, 547.845 536, 547.570 536 C 547.295 536, 546.589 536.900, 546 538 M 542.405 543.155 C 541.962 543.870, 542.130 544.038, 542.845 543.595 C 543.480 543.203, 544 542.684, 544 542.441 C 544 542.198, 543.802 542, 543.559 542 C 543.316 542, 542.797 542.520, 542.405 543.155 M 104.500 554 C 105.495 555.100, 106.535 556, 106.810 556 C 107.085 556, 106.495 555.100, 105.500 554 C 104.505 552.900, 103.465 552, 103.190 552 C 102.915 552, 103.505 552.900, 104.500 554 M 532.405 554.250 C 530.500 556.500, 530.500 556.500, 532.750 554.595 C 533.987 553.547, 535 552.535, 535 552.345 C 535 552.155, 534.845 552, 534.655 552 C 534.465 552, 533.453 553.013, 532.405 554.250 M 115.500 566 C 116.495 567.100, 117.535 568, 117.810 568 C 118.085 568, 117.495 567.100, 116.500 566 C 115.505 564.900, 114.465 564, 114.190 564 C 113.915 564, 114.505 564.900, 115.500 566 M 521.405 566.250 C 519.500 568.500, 519.500 568.500, 521.750 566.595 C 522.987 565.547, 524 564.535, 524 564.345 C 524 564.155, 523.845 564, 523.655 564 C 523.465 564, 522.453 565.013, 521.405 566.250 M 125 576.378 C 125 576.585, 125.787 577.373, 126.750 578.128 C 128.336 579.371, 128.371 579.336, 127.128 577.750 C 126.373 576.788, 125.585 576, 125.378 576 C 125.170 576, 125 576.170, 125 576.378 M 510.872 577.750 C 509.629 579.336, 509.664 579.371, 511.250 578.128 C 512.212 577.373, 513 576.585, 513 576.378 C 513 576.170, 512.830 576, 512.622 576 C 512.415 576, 511.627 576.788, 510.872 577.750 M 136.500 589 C 137.495 590.100, 138.535 591, 138.810 591 C 139.085 591, 138.495 590.100, 137.500 589 C 136.505 587.900, 135.465 587, 135.190 587 C 134.915 587, 135.505 587.900, 136.500 589 M 500.405 589.250 C 498.500 591.500, 498.500 591.500, 500.750 589.595 C 501.988 588.547, 503 587.535, 503 587.345 C 503 587.155, 502.845 587, 502.655 587 C 502.465 587, 501.453 588.013, 500.405 589.250 M 147.500 601 C 148.495 602.100, 149.535 603, 149.810 603 C 150.085 603, 149.495 602.100, 148.500 601 C 147.505 599.900, 146.465 599, 146.190 599 C 145.915 599, 146.505 599.900, 147.500 601 M 489.405 601.250 C 487.500 603.500, 487.500 603.500, 489.750 601.595 C 490.988 600.547, 492 599.535, 492 599.345 C 492 599.155, 491.845 599, 491.655 599 C 491.465 599, 490.453 600.013, 489.405 601.250 M 157 611.500 C 157 611.775, 157.225 612, 157.500 612 C 157.775 612, 158 611.775, 158 611.500 C 158 611.225, 157.775 611, 157.500 611 C 157.225 611, 157 611.225, 157 611.500 M 480 611.500 C 480 611.775, 480.225 612, 480.500 612 C 480.775 612, 481 611.775, 481 611.500 C 481 611.225, 480.775 611, 480.500 611 C 480.225 611, 480 611.225, 480 611.500" stroke="none" fill="#b26851" fill-rule="evenodd"/><path d="M 291.500 1.118 C 286 1.581, 275.469 2.908, 268.098 4.066 C 260.727 5.224, 248.577 7.687, 241.098 9.540 C 233.619 11.392, 222.325 14.665, 216 16.814 C 209.675 18.962, 200.450 22.401, 195.500 24.456 C 190.550 26.510, 180.425 31.288, 173 35.072 C 165.575 38.857, 154.775 44.922, 149 48.551 C 143.225 52.180, 134.225 58.335, 129 62.230 C 123.775 66.124, 116.575 71.792, 113 74.824 C 109.425 77.856, 101.628 85.099, 95.673 90.919 C 89.718 96.738, 81.357 105.550, 77.093 110.500 C 72.829 115.450, 66.147 123.775, 62.244 129 C 58.342 134.225, 52.180 143.225, 48.551 149 C 44.922 154.775, 38.857 165.575, 35.072 173 C 31.288 180.425, 26.510 190.550, 24.456 195.500 C 22.401 200.450, 18.969 209.675, 16.828 216 C 14.687 222.325, 11.608 232.730, 9.985 239.121 C 8.363 245.513, 5.876 257.213, 4.460 265.121 C 3.043 273.030, 1.502 282.028, 1.036 285.118 C 0.570 288.208, 0.136 299.175, 0.072 309.488 C 0.007 319.802, 0.438 334.149, 1.028 341.370 C 1.619 348.592, 3.021 360.309, 4.145 367.409 C 5.268 374.508, 7.507 385.721, 9.120 392.326 C 10.732 398.930, 13.620 409.547, 15.537 415.917 C 17.454 422.288, 20.694 431.325, 22.737 436 C 24.781 440.675, 26.913 444.831, 27.476 445.235 C 28.039 445.639, 28.189 445.976, 27.808 445.985 C 27.428 445.993, 29.786 451.288, 33.048 457.750 C 36.311 464.212, 39.408 470.015, 39.930 470.643 C 40.452 471.272, 40.607 472.060, 40.273 472.393 C 39.940 472.727, 40.192 473, 40.833 473 C 41.475 473, 42 473.606, 42 474.347 C 42 475.088, 42.900 476.732, 44 478 C 45.100 479.268, 46 480.912, 46 481.653 C 46 482.394, 46.401 483, 46.892 483 C 47.382 483, 48.066 484.125, 48.411 485.500 C 48.756 486.875, 49.480 488, 50.019 488 C 50.559 488, 51 488.675, 51 489.500 C 51 490.325, 51.450 491, 52 491 C 52.550 491, 53 491.675, 53 492.500 C 53 493.325, 53.450 494, 54 494 C 54.550 494, 55 494.675, 55 495.500 C 55 496.325, 55.450 497, 56 497 C 56.550 497, 57 497.689, 57 498.531 C 57 499.374, 57.675 500.322, 58.500 500.638 C 59.325 500.955, 60 501.841, 60 502.607 C 60 503.373, 60.450 504, 61 504 C 61.550 504, 62 504.653, 62 505.450 C 62 506.248, 62.787 507.341, 63.750 507.880 C 64.712 508.419, 65.275 509.015, 65 509.204 C 64.725 509.394, 65.175 510.350, 66 511.329 C 66.825 512.309, 68.625 514.438, 70 516.061 C 71.375 517.685, 74.075 520.835, 76 523.062 C 77.925 525.289, 83.550 531.456, 88.500 536.765 C 93.450 542.075, 99.750 548.780, 102.500 551.665 C 105.250 554.551, 110.200 559.894, 113.500 563.539 C 116.800 567.184, 121.525 572.345, 124 575.008 C 126.475 577.671, 131.200 582.856, 134.500 586.531 C 137.800 590.206, 142.750 595.601, 145.500 598.520 C 148.250 601.439, 152.603 606.228, 155.174 609.163 C 157.744 612.099, 195.429 653.425, 238.918 701 C 282.407 748.575, 318.447 787.500, 319.007 787.500 C 319.568 787.500, 355.608 748.575, 399.097 701 C 442.587 653.425, 480.268 612.099, 482.834 609.163 C 485.400 606.228, 489.750 601.429, 492.500 598.499 C 495.250 595.569, 500.200 590.201, 503.500 586.570 C 506.800 582.939, 511.525 577.763, 514 575.067 C 516.475 572.372, 521.200 567.184, 524.500 563.539 C 527.800 559.894, 532.750 554.500, 535.500 551.553 C 538.250 548.605, 542.075 544.500, 544 542.429 C 545.925 540.359, 546.893 539.020, 546.150 539.453 C 545.058 540.091, 545.017 539.837, 545.935 538.121 C 546.560 536.954, 547.306 536, 547.594 536 C 547.882 536, 547.800 536.563, 547.412 537.250 C 546.884 538.185, 547.013 538.218, 547.923 537.381 C 548.591 536.765, 549.238 535.587, 549.359 534.762 C 549.480 533.938, 551.274 531.516, 553.345 529.382 C 555.417 527.247, 558.212 524.358, 559.556 522.962 C 560.900 521.567, 562 519.895, 562 519.248 C 562 518.600, 562.900 517.589, 564 517 C 565.100 516.411, 566 515.286, 566 514.500 C 566 513.714, 566.900 512.589, 568 512 C 569.100 511.411, 570 510.319, 570 509.572 C 570 508.825, 570.675 507.955, 571.500 507.638 C 572.325 507.322, 573 506.374, 573 505.531 C 573 504.689, 573.450 504, 574 504 C 574.550 504, 575 503.373, 575 502.607 C 575 501.841, 575.675 500.955, 576.500 500.638 C 577.325 500.322, 578 499.374, 578 498.531 C 578 497.689, 578.450 497, 579 497 C 579.550 497, 580 496.325, 580 495.500 C 580 494.675, 580.450 494, 581 494 C 581.550 494, 582 493.325, 582 492.500 C 582 491.675, 582.450 491, 583 491 C 583.550 491, 584 490.531, 584 489.958 C 584 489.385, 584.884 487.967, 585.965 486.807 C 587.046 485.646, 587.695 484.315, 587.406 483.849 C 587.118 483.382, 587.359 483, 587.941 483 C 588.523 483, 589 482.325, 589 481.500 C 589 480.675, 589.525 480, 590.167 480 C 590.808 480, 591.060 479.727, 590.726 479.393 C 590.392 479.058, 591.221 477.596, 592.570 476.143 C 593.918 474.689, 594.796 472.914, 594.522 472.198 C 594.247 471.482, 594.433 471.150, 594.935 471.460 C 595.437 471.770, 597.399 470.106, 599.296 467.762 C 601.193 465.418, 605.014 459.853, 607.788 455.395 C 610.562 450.938, 614.629 443.716, 616.826 439.346 C 619.023 434.977, 621.784 428.499, 622.961 424.951 C 624.139 421.403, 625.543 416.250, 626.081 413.500 C 626.619 410.750, 627.067 404, 627.075 398.500 C 627.085 392.175, 628.007 383.539, 629.585 375 C 630.958 367.575, 632.555 355.650, 633.135 348.500 C 633.715 341.350, 634.597 334.719, 635.095 333.764 C 635.593 332.809, 635.993 324.484, 635.985 315.264 C 635.974 304.071, 635.647 298.998, 635 300 C 634.309 301.069, 634.026 299.909, 634.015 295.970 C 634.007 292.929, 633.322 284.829, 632.494 277.970 C 631.666 271.112, 630.050 261, 628.904 255.500 C 627.758 250, 625.732 241.419, 624.402 236.431 C 623.073 231.443, 620.251 222.218, 618.132 215.931 C 616.013 209.644, 612.599 200.450, 610.544 195.500 C 608.490 190.550, 603.712 180.425, 599.928 173 C 596.143 165.575, 590.078 154.775, 586.449 149 C 582.820 143.225, 576.665 134.225, 572.770 129 C 568.876 123.775, 563.208 116.575, 560.176 113 C 557.144 109.425, 549.901 101.628, 544.081 95.673 C 538.262 89.718, 529.450 81.357, 524.500 77.093 C 519.550 72.829, 511.225 66.147, 506 62.244 C 500.775 58.342, 491.775 52.180, 486 48.551 C 480.225 44.922, 469.425 38.857, 462 35.072 C 454.575 31.288, 444.450 26.510, 439.500 24.456 C 434.550 22.401, 425.325 18.962, 419 16.814 C 412.675 14.665, 401.417 11.401, 393.982 9.559 C 386.548 7.718, 374.623 5.287, 367.482 4.158 C 360.342 3.029, 348.738 1.631, 341.696 1.052 C 334.653 0.474, 322.728 0.062, 315.196 0.137 C 307.663 0.213, 297 0.654, 291.500 1.118 M 0.411 317 C 0.411 326.625, 0.561 330.563, 0.745 325.750 C 0.928 320.938, 0.928 313.063, 0.745 308.250 C 0.561 303.438, 0.411 307.375, 0.411 317 M 603 454.500 C 603 454.775, 603.225 455, 603.500 455 C 603.775 455, 604 454.775, 604 454.500 C 604 454.225, 603.775 454, 603.500 454 C 603.225 454, 603 454.225, 603 454.500 M 602 456.500 C 602 456.775, 602.225 457, 602.500 457 C 602.775 457, 603 456.775, 603 456.500 C 603 456.225, 602.775 456, 602.500 456 C 602.225 456, 602 456.225, 602 456.500 M 601 458.500 C 601 458.775, 601.225 459, 601.500 459 C 601.775 459, 602 458.775, 602 458.500 C 602 458.225, 601.775 458, 601.500 458 C 601.225 458, 601 458.225, 601 458.500 M 600 460.500 C 600 460.775, 600.225 461, 600.500 461 C 600.775 461, 601 460.775, 601 460.500 C 601 460.225, 600.775 460, 600.500 460 C 600.225 460, 600 460.225, 600 460.500 M 599 462.500 C 599 462.775, 599.225 463, 599.500 463 C 599.775 463, 600 462.775, 600 462.500 C 600 462.225, 599.775 462, 599.500 462 C 599.225 462, 599 462.225, 599 462.500 M 598 464.500 C 598 464.775, 598.225 465, 598.500 465 C 598.775 465, 599 464.775, 599 464.500 C 599 464.225, 598.775 464, 598.500 464 C 598.225 464, 598 464.225, 598 464.500 M 593 473.500 C 593 473.775, 593.225 474, 593.500 474 C 593.775 474, 594 473.775, 594 473.500 C 594 473.225, 593.775 473, 593.500 473 C 593.225 473, 593 473.225, 593 473.500" stroke="none" fill="#fb635c" fill-rule="evenodd"/></svg>