<?xml version="1.0" encoding="UTF-8"?>
<svg version="1.1" xmlns="http://www.w3.org/2000/svg" width="635" height="788">
<path d="M0 0 C13.51487277 12.1311621 27.07218164 24.92114872 38.03515625 39.4375 C39.04258289 40.7187769 40.05185685 41.99860244 41.0625 43.27734375 C52.96520824 58.44222366 62.9832566 74.43208096 72.03515625 91.4375 C72.37611328 92.06881836 72.71707031 92.70013672 73.06835938 93.35058594 C111.66211724 165.20556455 117.90043499 252.36309125 95.34765625 330.1875 C89.70472339 348.857042 82.33599681 367.23906309 73.10693359 384.43847656 C72.34159964 385.86593771 71.58507124 387.29813429 70.83447266 388.73339844 C59.41800496 410.55579568 45.31351012 430.0193973 29.15942383 448.54248047 C26.5713799 451.53827336 24.23310848 454.48981196 22.16015625 457.875 C17.96594927 464.54590486 12.10533247 470.01390873 6.69042969 475.68945312 C4.53530235 477.96536931 2.43603855 480.28782126 0.34765625 482.625 C-4.24335845 487.75912919 -8.89804224 492.83351771 -13.55761719 497.90527344 C-15.86192922 500.41427106 -18.16329196 502.92597057 -20.46484375 505.4375 C-23.23677551 508.46232361 -26.00939083 511.48650597 -28.78515625 514.5078125 C-33.01251126 519.11099765 -37.23010458 523.72163776 -41.40234375 528.375 C-45.8612829 533.34262383 -50.38922706 538.24433252 -54.921875 543.14453125 C-59.16275108 547.7301721 -63.37939224 552.33794917 -67.59716797 556.94482422 C-68.99063527 558.46564876 -70.38572126 559.98497324 -71.78125 561.50390625 C-76.01007851 566.10823948 -80.22887461 570.72026595 -84.40234375 575.375 C-88.85882086 580.33988091 -93.38432437 585.23884952 -97.9140625 590.13671875 C-104.11801136 596.8453422 -110.30171168 603.5721369 -116.40234375 610.375 C-120.85882086 615.33988091 -125.38432437 620.23884952 -129.9140625 625.13671875 C-136.11801136 631.8453422 -142.30171168 638.5721369 -148.40234375 645.375 C-152.8612829 650.34262383 -157.38922706 655.24433252 -161.921875 660.14453125 C-166.16275108 664.7301721 -170.37939224 669.33794917 -174.59716797 673.94482422 C-175.99063527 675.46564876 -177.38572126 676.98497324 -178.78125 678.50390625 C-183.75675794 683.92114473 -188.70450456 689.36155034 -193.6171875 694.8359375 C-198.03511128 699.73167333 -202.50207048 704.58267002 -206.96484375 709.4375 C-210.08320708 708.06397072 -212.08349803 706.51911027 -214.390625 704.0234375 C-215.02291016 703.34410156 -215.65519531 702.66476562 -216.30664062 701.96484375 C-216.95697266 701.25457031 -217.60730469 700.54429687 -218.27734375 699.8125 C-218.91607422 699.12542969 -219.55480469 698.43835938 -220.21289062 697.73046875 C-223.36718415 694.32370391 -226.46862662 690.87802907 -229.515625 687.375 C-232.87011683 683.51981658 -236.33645936 679.78220338 -239.83984375 676.0625 C-244.51419732 671.07775458 -249.13760855 666.05645091 -253.69140625 660.9609375 C-256.42321939 657.92871879 -259.19197076 654.93213353 -261.96484375 651.9375 C-265.49186356 648.12770002 -268.99994683 644.3041241 -272.46484375 640.4375 C-276.89855089 635.49159564 -281.40427795 630.61463346 -285.9140625 625.73828125 C-292.11801136 619.0296578 -298.30171168 612.3028631 -304.40234375 605.5 C-308.8612829 600.53237617 -313.38922706 595.63066748 -317.921875 590.73046875 C-322.16275108 586.1448279 -326.37939224 581.53705083 -330.59716797 576.93017578 C-331.99063527 575.40935124 -333.38572126 573.89002676 -334.78125 572.37109375 C-339.01007851 567.76676052 -343.22887461 563.15473405 -347.40234375 558.5 C-351.85882086 553.53511909 -356.38432437 548.63615048 -360.9140625 543.73828125 C-367.11801136 537.0296578 -373.30171168 530.3028631 -379.40234375 523.5 C-383.8612829 518.53237617 -388.38922706 513.63066748 -392.921875 508.73046875 C-397.16275108 504.1448279 -401.37939224 499.53705083 -405.59716797 494.93017578 C-406.99063527 493.40935124 -408.38572126 491.89002676 -409.78125 490.37109375 C-413.97028706 485.80995625 -418.14918762 481.24151471 -422.27734375 476.625 C-426.16968075 472.29083015 -430.12001869 468.0130716 -434.08984375 463.75 C-434.95089722 462.82320435 -434.95089722 462.82320435 -435.8293457 461.87768555 C-438.70522441 458.79765115 -441.61810417 455.77298406 -444.6171875 452.8125 C-447.39846353 450.04864566 -449.94538156 447.18575251 -452.40234375 444.125 C-453.08167969 443.28324219 -453.76101563 442.44148437 -454.4609375 441.57421875 C-454.83831055 441.09968262 -455.21568359 440.62514648 -455.60449219 440.13623047 C-456.64552394 438.8362486 -457.69776671 437.54523727 -458.75488281 436.25830078 C-463.81838519 430.04557347 -468.41255933 423.61615762 -472.83984375 416.9375 C-473.53746826 415.88578613 -474.23509277 414.83407227 -474.95385742 413.75048828 C-480.77718001 404.88166979 -486.0996626 395.86256534 -490.96484375 386.4375 C-491.41698242 385.56351562 -491.86912109 384.68953125 -492.33496094 383.7890625 C-493.78540556 380.9691375 -495.22246337 378.1429048 -496.65234375 375.3125 C-497.0800708 374.46671387 -497.50779785 373.62092773 -497.94848633 372.74951172 C-499.31940047 369.99301844 -500.65086622 367.22161348 -501.96484375 364.4375 C-502.2390918 363.85751251 -502.51333984 363.27752502 -502.79589844 362.67996216 C-507.60786003 352.402858 -511.14981764 342.07504456 -514.08984375 331.125 C-514.40817673 329.95721512 -514.40817673 329.95721512 -514.73294067 328.76583862 C-537.54983797 244.82481528 -528.26900975 157.18264638 -485.55859375 80.92675781 C-466.30395321 47.49096511 -439.83177848 14.74868993 -408.96484375 -8.5625 C-407.68356685 -9.56992664 -406.40374131 -10.5792006 -405.125 -11.58984375 C-324.39768464 -74.951617 -216.46442427 -94.35885111 0 0 Z " fill="#FEFEFE" transform="translate(526.96484375,78.5625)"/>
<path d="M0 0 C15.83455655 0.37765908 31.62205691 1.1304152 47.42819214 2.12417603 C73.15531149 3.73419188 98.89710747 4.89518507 124.65037918 5.99258041 C127.69777996 6.1227691 130.74512075 6.25428654 133.79244995 6.38613892 C155.79695363 7.33582208 177.79668625 8.19218476 199.81756592 8.65213013 C210.55940278 8.88439812 221.27351912 9.38296542 232 10 C232.31163086 10.69585205 232.62326172 11.3917041 232.94433594 12.10864258 C235.72472553 18.21032289 238.73972788 22.80735182 244 27 C244.53753906 27.43441406 245.07507813 27.86882812 245.62890625 28.31640625 C252.22657564 32.55249375 261.47313778 32.20788469 269 31 C275.00032555 28.93960834 280.01024257 25.87316836 285 22 C285.59167969 22.48210937 286.18335938 22.96421875 286.79296875 23.4609375 C287.58316406 24.09257812 288.37335938 24.72421875 289.1875 25.375 C289.96480469 26.00148438 290.74210937 26.62796875 291.54296875 27.2734375 C298.74951833 32.33749936 307.52434086 31.95989393 316 31 C323.86088399 28.92923005 329.48050315 23.6174619 334 17 C335.02111377 14.67582894 336.0233517 12.34320348 337 10 C338.23676483 9.95654953 339.47352966 9.91309906 340.74777222 9.86833191 C433.08859214 6.70611447 433.08859214 6.70611447 525.33911133 1.6328125 C539.21238666 0.7389432 553.10411687 0.35697444 567 0 C567.82048815 4.43606072 568.6299069 8.87407513 569.4375 13.3125 C569.78264648 15.17745117 569.78264648 15.17745117 570.13476562 17.08007812 C570.35712891 18.30791016 570.57949219 19.53574219 570.80859375 20.80078125 C571.01282959 21.91622314 571.21706543 23.03166504 571.42749023 24.1809082 C572.68425509 32.56452126 573.15726258 40.89314992 573.16796875 49.36328125 C573.17129715 50.31655807 573.17462555 51.2698349 573.17805481 52.2519989 C573.18308154 54.25954716 573.18546446 56.26710366 573.18530273 58.2746582 C573.18746726 61.26723949 573.20560849 64.25943783 573.22460938 67.25195312 C573.27912761 85.25428121 572.37771103 103.14428349 568.375 120.75 C567.98586426 122.50050659 567.98586426 122.50050659 567.58886719 124.28637695 C557.44387651 168.52318558 538.71683427 209.72064769 510 245 C509.58218262 245.51401367 509.16436523 246.02802734 508.73388672 246.55761719 C498.41447393 259.18271928 487.4614216 271.45436818 475 282 C474.44103027 282.48726562 473.88206055 282.97453125 473.30615234 283.4765625 C455.89760976 298.63751255 436.54663573 311.48626246 416 322 C415.27103516 322.37672852 414.54207031 322.75345703 413.79101562 323.14160156 C386.24691746 337.2252897 355.64784356 346.87150787 325 351 C323.72302246 351.17732666 322.44604492 351.35465332 321.13037109 351.53735352 C308.54974589 353.17416927 296.04810722 353.35769035 283.375 353.3125 C282.31418213 353.31067719 281.25336426 353.30885437 280.16040039 353.30697632 C264.89048568 353.26277454 250.0383932 352.86445585 235 350 C234.05543945 349.83371094 233.11087891 349.66742187 232.13769531 349.49609375 C184.42124288 341.03406278 139.63319531 320.49846402 102 290 C100.59814453 288.90365234 100.59814453 288.90365234 99.16796875 287.78515625 C91.21857997 281.35688249 83.99065962 274.20276195 76.75 267 C76.23625824 266.49152527 75.72251648 265.98305054 75.19320679 265.45916748 C68.32554805 258.64594759 61.99137062 251.61274669 56 244 C55.1068621 242.89315551 54.21365045 241.78637053 53.3203125 240.6796875 C25.38500852 204.99009986 6.14335013 161.58572329 -2 117 C-2.15404297 116.15775879 -2.30808594 115.31551758 -2.46679688 114.44775391 C-5.54085926 97.20068073 -6.23648339 80.17992517 -6.25 62.6875 C-6.25200912 61.1530574 -6.25200912 61.1530574 -6.25405884 59.58761597 C-6.24977681 44.51502787 -5.78915292 29.85364321 -3 15 C-2.7839209 13.80866455 -2.7839209 13.80866455 -2.56347656 12.59326172 C-1.78970254 8.37610557 -0.94513438 4.18272236 0 0 Z " fill="#006DBF" transform="translate(34,254)"/>
<path d="M0 0 C1.66095703 -0.02416992 1.66095703 -0.02416992 3.35546875 -0.04882812 C10.74719741 -0.05317109 17.11683852 0.98788072 24.125 3.3125 C25.18976563 3.65152344 26.25453125 3.99054688 27.3515625 4.33984375 C28.14304687 4.64019531 28.93453125 4.94054687 29.75 5.25 C30.56726563 5.54777344 31.38453125 5.84554688 32.2265625 6.15234375 C34.125 7.3125 34.125 7.3125 34.85180664 9.16870117 C35.32486431 12.88087219 32.86937211 15.67247378 30.9375 18.6875 C30.33711914 19.65816406 30.33711914 19.65816406 29.72460938 20.6484375 C28.54277194 22.54857159 27.33593801 24.43081938 26.125 26.3125 C25.7542334 26.91094727 25.3834668 27.50939453 25.00146484 28.12597656 C24.09617733 29.55679293 23.11694781 30.94034094 22.125 32.3125 C21.465 32.3125 20.805 32.3125 20.125 32.3125 C19.0421875 31.1678125 19.0421875 31.1678125 17.9375 30 C12.66746759 24.96419125 7.3280164 23.76808043 0.1875 23.875 C-0.8658252 23.88527222 -0.8658252 23.88527222 -1.94042969 23.89575195 C-8.9521118 24.1131369 -13.23010925 25.59612572 -18.1875 30.6875 C-21.73062931 36.19903449 -23.4120492 40.53594052 -23.3125 47.125 C-23.30420166 47.83060059 -23.29590332 48.53620117 -23.28735352 49.26318359 C-23.06853585 56.03640799 -21.8314653 61.08280687 -17.2265625 66.11328125 C-11.49524488 71.35656091 -6.36100499 72.68278846 1.375 72.625 C2.51279907 72.61871582 2.51279907 72.61871582 3.67358398 72.61230469 C9.30373072 72.49874739 13.99945428 71.73928899 19.125 69.3125 C19.81851563 69.0340625 20.51203125 68.755625 21.2265625 68.46875 C26.33119972 66.25100499 30.97023009 63.63461967 33.125 58.3125 C33.48649946 54.6162158 33.29686471 50.92781254 33.16357422 47.22241211 C32.8476014 36.42299146 36.41080404 27.71312546 43.125 19.3125 C43.65351563 18.63574219 44.18203125 17.95898438 44.7265625 17.26171875 C48.80836873 12.631476 53.4422837 9.7767645 58.875 7 C59.50583496 6.67443115 60.13666992 6.3488623 60.78662109 6.01342773 C70.75075873 1.20871007 80.90399581 -0.22846131 91.875 -0.125 C93.00881104 -0.11742676 94.14262207 -0.10985352 95.31079102 -0.10205078 C112.84685 0.24020153 127.05524344 4.94002206 140.01953125 17.12109375 C142.50154134 19.70441037 144.36889093 22.19939755 146.125 25.3125 C148.05319325 23.46143448 149.89379269 21.60213742 151.5625 19.51171875 C157.71070045 11.90036483 165.86626592 6.50516693 175.125 3.3125 C175.91777344 3.03535156 176.71054687 2.75820313 177.52734375 2.47265625 C197.1817218 -3.25217601 219.15238014 -1.00640746 237.25 8.25 C244.50501194 12.55903739 249.48591429 17.28358226 254.125 24.3125 C254.805625 23.631875 255.48625 22.95125 256.1875 22.25 C256.87972656 21.56550781 256.87972656 21.56550781 257.5859375 20.8671875 C258.63301455 19.80948023 259.65859494 18.73015019 260.6640625 17.6328125 C270.92046721 6.69588804 285.81054092 0.5015175 300.7265625 0.01171875 C321.55718911 -0.19263777 340.3326051 1.76554889 356.0078125 17.00390625 C365.2793993 27.11369924 368.86339053 38.15085014 368.4453125 51.8359375 C368.02270671 56.42275643 367.04628439 60.14585915 365.125 64.3125 C364.77308594 65.13234375 364.42117188 65.9521875 364.05859375 66.796875 C358.03138684 79.92544451 348.09378055 87.26249911 334.8046875 92.48828125 C325.81739026 95.25259571 317.46717212 95.61763242 308.0625 95.5625 C306.7259077 95.56963974 305.38931879 95.57744814 304.05273438 95.5859375 C302.76560547 95.58335937 301.47847656 95.58078125 300.15234375 95.578125 C298.41585571 95.57474121 298.41585571 95.57474121 296.64428711 95.57128906 C293.125 95.3125 293.125 95.3125 285.125 93.3125 C284.795 99.5825 284.465 105.8525 284.125 112.3125 C274.225 112.3125 264.325 112.3125 254.125 112.3125 C253.795 99.4425 253.465 86.5725 253.125 73.3125 C250.155 76.6125 247.185 79.9125 244.125 83.3125 C240.75952012 85.54263727 237.6641003 87.47559673 234.125 89.3125 C233.196875 89.869375 232.26875 90.42625 231.3125 91 C221.31989839 95.11460066 211.00901112 95.86659541 200.3125 95.8125 C198.33672974 95.80391968 198.33672974 95.80391968 196.32104492 95.79516602 C178.48657268 95.46809974 164.4536581 90.24557882 151.78125 77.3046875 C149.94991159 75.10189837 148.53707896 72.80085865 147.125 70.3125 C146.59132813 71.02535156 146.05765625 71.73820312 145.5078125 72.47265625 C135.6855367 85.09886891 123.12470261 92.9890485 107.125 95.3125 C102.35098699 95.61386159 97.59484824 95.63729395 92.8125 95.625 C91.57048828 95.64111328 90.32847656 95.65722656 89.04882812 95.67382812 C78.06287273 95.67958898 68.43444304 93.95077286 58.6875 88.8125 C57.55441406 88.2246875 56.42132813 87.636875 55.25390625 87.03125 C52.5016288 85.51938723 49.80177418 83.95358772 47.125 82.3125 C46.12533203 83.00085938 46.12533203 83.00085938 45.10546875 83.703125 C38.70047212 87.96715073 32.5374388 91.20465015 25.125 93.3125 C24.52502197 93.48982666 23.92504395 93.66715332 23.30688477 93.84985352 C16.04106829 95.75512713 8.78195588 95.64349791 1.3125 95.625 C0.02279297 95.64111328 -1.26691406 95.65722656 -2.59570312 95.67382812 C-18.36772819 95.68180588 -34.42060165 91.52985335 -46.1328125 80.3203125 C-51.78896718 73.80178446 -55.72637364 66.65908701 -57.875 58.3125 C-58.14763672 57.39791016 -58.14763672 57.39791016 -58.42578125 56.46484375 C-60.85295559 44.83551276 -58.31899908 33.42988594 -52.0625 23.5 C-43.10685252 11.12735984 -30.36806589 3.89126033 -15.5090332 0.71826172 C-10.35903395 -0.07507397 -5.19992173 -0.01502868 0 0 Z " fill="#FCFCFD" transform="translate(163.875,353.6875)"/>
<path d="M0 0 C7.32118567 1.19624454 14.55956675 2.28134465 21.96777344 2.75146484 C25.55704934 3.24063231 27.62379437 4.63325979 30.25 7.0625 C32.73236926 11.42100438 34.2004224 15.85471436 35.4375 20.6875 C35.61474609 21.34234375 35.79199219 21.9971875 35.97460938 22.671875 C36.83557335 25.95617 37.25 28.636358 37.25 32.0625 C37.90930071 32.05789104 38.56860142 32.05328207 39.24788094 32.04853344 C55.2977565 31.93806215 71.34749963 31.85534753 87.39766121 31.80343914 C95.15945218 31.77766869 102.92098922 31.74254073 110.68261719 31.68530273 C117.44848581 31.63543178 124.2141705 31.60320054 130.98021781 31.59205753 C134.56215873 31.58554485 138.14357351 31.57026363 141.72534561 31.53384972 C145.72615036 31.49350648 149.72604325 31.4925529 153.72705078 31.49487305 C154.9117244 31.47689667 156.09639801 31.45892029 157.31697083 31.44039917 C166.2778598 31.49671493 166.2778598 31.49671493 170.02641296 34.34793091 C172.25 37.0625 172.25 37.0625 172.74394226 39.06291199 C172.61405411 39.72301773 172.48416595 40.38312347 172.3503418 41.06323242 C172.20341888 41.84483734 172.05649597 42.62644226 171.90512085 43.43173218 C170.59893373 48.67698585 169.19017514 53.87036283 167.64453125 59.05078125 C167.28284348 60.27153854 166.9211557 61.49229584 166.54850769 62.75004578 C165.7836679 65.31728869 165.01506315 67.8830766 164.2409668 70.44750977 C163.25343593 73.72440954 162.29388506 77.0088198 161.34055042 80.29580402 C160.41954323 83.44909708 159.46746061 86.5929959 158.51953125 89.73828125 C158.18178177 90.91433426 157.84403229 92.09038727 157.49604797 93.30207825 C155.01678164 101.34221945 155.01678164 101.34221945 151.36352539 104.77392578 C148.16052768 106.09952932 145.61291084 106.71735585 142.1640625 107.00390625 C140.41585205 107.16439453 140.41585205 107.16439453 138.63232422 107.328125 C137.39240723 107.42609375 136.15249023 107.5240625 134.875 107.625 C132.24459071 107.86368104 129.61438342 108.10459783 126.984375 108.34765625 C125.67533203 108.46512207 124.36628906 108.58258789 123.01757812 108.70361328 C117.70430241 109.20973791 112.41681334 109.87078312 107.125 110.5625 C97.31494898 111.82809929 87.49238152 112.93385857 77.65893555 114.0012207 C70.72688379 114.76197519 63.83540513 115.623278 56.94921875 116.73046875 C49.23372442 117.67955271 49.23372442 117.67955271 45.01171875 115.03125 C41.81010482 112.04293826 40.9099907 108.75640841 40.0625 104.5625 C39.66742428 102.86677981 39.26429574 101.17292622 38.85546875 99.48046875 C38.61747559 98.49481934 38.37948242 97.50916992 38.13427734 96.49365234 C36.26168158 89.22764991 34.03541808 82.05952872 31.875 74.875 C31.3887402 73.25018267 30.90281855 71.6252641 30.41723633 70.00024414 C29.69998524 67.60003184 28.98260083 65.19986103 28.26426697 62.79997253 C26.24058736 56.03885059 24.2344436 49.27275303 22.25 42.5 C21.98396973 41.59934814 21.71793945 40.69869629 21.44384766 39.77075195 C19.53567005 33.24365122 17.8613824 26.66873929 16.25 20.0625 C15.4876001 20.01681885 14.7252002 19.9711377 13.93969727 19.92407227 C6.35769104 19.44452197 -1.20202254 18.66567735 -8.75 17.8125 C-9.75297119 17.71541748 -10.75594238 17.61833496 -11.78930664 17.51831055 C-16.4157198 16.96529224 -19.10701103 16.54434285 -22.8984375 13.703125 C-25.18909784 10.43627608 -25.50096385 8.86003824 -25.23046875 5 C-22.42060413 -6.3308362 -8.11249459 -1.3351429 0 0 Z " fill="#0478D2" transform="translate(233.75,113.9375)"/>
<path d="M0 0 C34.98 0 69.96 0 106 0 C104.87496768 7.87522627 104.87496768 7.87522627 103.94921875 11.12890625 C103.64274414 12.21848633 103.64274414 12.21848633 103.33007812 13.33007812 C103.11802734 14.06677734 102.90597656 14.80347656 102.6875 15.5625 C102.48705078 16.27212891 102.28660156 16.98175781 102.08007812 17.71289062 C101.39201853 20.14346648 100.69620693 22.57174489 100 25 C99.46174739 26.88400811 98.923501 28.76801801 98.38545227 30.65208435 C97.59070238 33.43483747 96.7953437 36.21741655 96 39 C94.79802979 39.13575439 93.59605957 39.27150879 92.35766602 39.41137695 C87.77874145 39.92879379 83.19992272 40.4471414 78.62115479 40.96594238 C76.58532016 41.19661045 74.54947222 41.42716096 72.51361084 41.65759277 C60.87799619 42.9753595 49.24699018 44.31659014 37.625 45.75 C29.4251799 46.75805128 21.25399885 47.57179612 13 48 C9.6811712 37.80813567 6.52814218 27.58644135 3.6875 17.25 C3.30634033 15.87690674 3.30634033 15.87690674 2.91748047 14.47607422 C2.6804541 13.60225098 2.44342773 12.72842773 2.19921875 11.828125 C1.99127686 11.0640332 1.78333496 10.29994141 1.5690918 9.51269531 C0.85920126 6.3783352 0.4544922 3.18144539 0 0 Z " fill="#FDFDFE" transform="translate(278,164)"/>
<path d="M0 0 C5.73014282 3.41696959 8.63289035 7.74394328 11.25 13.8125 C11.58819974 16.50682456 11.7750593 18.87762069 11.75 21.5625 C11.74500488 22.26479736 11.74000977 22.96709473 11.73486328 23.69067383 C11.50170215 30.69113587 9.50865225 36.12413536 4.828125 41.421875 C-2.13522382 47.78622607 -8.50006706 48.13319252 -17.54296875 48.015625 C-20.14834091 47.85060752 -22.2580075 47.48730898 -24.75 46.8125 C-26.03197266 48.22015625 -26.03197266 48.22015625 -27.33984375 49.65625 C-28.45558748 50.87512971 -29.5714806 52.09387269 -30.6875 53.3125 C-31.53344727 54.24255859 -31.53344727 54.24255859 -32.39648438 55.19140625 C-33.82727975 56.75071618 -35.28646735 58.28387479 -36.75 59.8125 C-37.08 59.8125 -37.41 59.8125 -37.75 59.8125 C-37.87745713 53.42640655 -37.96462474 47.04064471 -38.0246582 40.65356445 C-38.04970152 38.48384341 -38.08374635 36.31420587 -38.12719727 34.14477539 C-38.18829773 31.01427532 -38.21631229 27.88489674 -38.23828125 24.75390625 C-38.26408768 23.79416397 -38.2898941 22.83442169 -38.31648254 21.84559631 C-38.31966495 14.09067261 -36.1229316 8.22249678 -30.6171875 2.65625 C-29.95976562 2.2128125 -29.30234375 1.769375 -28.625 1.3125 C-27.96242188 0.8484375 -27.29984375 0.384375 -26.6171875 -0.09375 C-19.42557714 -4.30640879 -7.35124211 -3.5053008 0 0 Z " fill="#026EC0" transform="translate(485.75,379.1875)"/>
<path d="M0 0 C5.36016262 3.16367102 9.03702876 8.05684537 11.0078125 13.95703125 C12.52418789 22.65199226 12.06957886 31.44071315 7.375 39.0625 C2.7432465 44.47385557 -2.81795666 47.6945161 -9.8984375 48.37890625 C-18.38198798 48.65927945 -24.30759512 48.09665565 -30.58984375 42.2265625 C-37.46620755 34.88614961 -38.18526099 27.63287504 -37.93359375 17.921875 C-37.38498679 11.06081583 -35.19039761 7.27531004 -30.1875 2.6875 C-22.29027859 -3.87214098 -9.21044217 -4.06549198 0 0 Z " fill="#036FC1" transform="translate(269.625,378.9375)"/>
<path d="M0 0 C5.10302389 4.42001878 8.40366171 9.0803649 9.23364258 15.92749023 C9.74804307 23.63984283 10.19781167 31.57411282 5.6953125 38.19921875 C0.8324167 43.36464493 -4.59549881 46.60604901 -11.6640625 47.23828125 C-19.55473242 47.43606849 -26.64089522 46.72321001 -32.84765625 41.421875 C-39.14355608 34.55362064 -40.53934106 28.30786331 -40.27734375 19.1484375 C-39.56141845 11.02117281 -35.99687456 5.49391089 -30 0 C-21.64174584 -4.81232815 -8.40150018 -4.7624323 0 0 Z " fill="#036FC1" transform="translate(380,380)"/>
<path d="M0 0 C4.81706073 2.3630864 7.6369136 5.18293927 10 10 C10.86107646 14.06784397 10.94489396 17.43603759 8.75390625 21.0625 C5.99002815 24.37088276 3.16819784 27.71703181 -1.3046875 28.30078125 C-10.33463415 28.34195122 -10.33463415 28.34195122 -14 25 C-17.29565312 20.5464147 -18.81805966 16.87190356 -18.59765625 11.28515625 C-17.4561016 6.92038848 -14.30460726 3.93078291 -11 1 C-7.52363841 -0.7381808 -3.800959 -0.45508953 0 0 Z " fill="#0679D2" transform="translate(346,242)"/>
<path d="M0 0 C3.62979059 2.35264205 7.04192716 5.08385432 9 9 C9.80607644 15.48825463 8.96341638 19.78497845 5 25 C0.97128776 27.90442045 -2.87103915 28.64053428 -7.75 28.4921875 C-12.9568405 27.35319114 -16.16597389 23.25103916 -19 19 C-19.74998696 14.42159126 -19.42086848 10.85792422 -17.375 6.6875 C-12.45890812 1.12455392 -7.45493187 -1.92020972 0 0 Z " fill="#0679D2" transform="translate(300,242)"/>
<path d="M0 0 C0 3 0 3 -2.5 5.6875 C-3.325 6.450625 -4.15 7.21375 -5 8 C-5.66 7.67 -6.32 7.34 -7 7 C-2.25 1.125 -2.25 1.125 0 0 Z " fill="#1E76C5" transform="translate(458,380)"/>
<path d="M0 0 C0 3 0 3 -2.5 5.6875 C-3.325 6.450625 -4.15 7.21375 -5 8 C-5.66 7.67 -6.32 7.34 -7 7 C-2.25 1.125 -2.25 1.125 0 0 Z " fill="#1D76C5" transform="translate(150,380)"/>
</svg>
